<svg width="320" height="205" viewBox="0 0 320 205" fill="none" xmlns="http://www.w3.org/2000/svg">
<rect width="320" height="205" fill="#F5F5F5"/>
<path d="M115.84 68H201.76C202.392 67.9981 203.018 68.1218 203.602 68.3639C204.185 68.6059 204.715 68.9615 205.16 69.41C206.059 70.3134 206.566 71.5352 206.57 72.81V134.16C206.572 134.79 206.448 135.415 206.206 135.997C205.964 136.579 205.608 137.107 205.16 137.55C205.086 137.633 205.002 137.707 204.91 137.77C204.037 138.552 202.902 138.976 201.73 138.96H115.81C114.536 138.96 113.314 138.455 112.412 137.555C111.511 136.655 111.003 135.434 111 134.16V72.81C110.998 72.1782 111.122 71.5522 111.364 70.9685C111.606 70.3849 111.962 69.8551 112.41 69.41C113.313 68.5097 114.535 68.0028 115.81 68H115.84ZM135.68 84.69C137.046 84.688 138.381 85.0913 139.517 85.8487C140.653 86.6061 141.539 87.6837 142.063 88.9449C142.586 90.2061 142.724 91.5943 142.458 92.9337C142.192 94.2731 141.535 95.5035 140.569 96.4691C139.603 97.4346 138.373 98.092 137.034 98.3579C135.694 98.6238 134.306 98.4864 133.045 97.9629C131.784 97.4394 130.706 96.5534 129.949 95.4172C129.191 94.281 128.788 92.9456 128.79 91.58C128.79 90.6752 128.968 89.7793 129.314 88.9433C129.661 88.1074 130.168 87.3479 130.808 86.7081C131.448 86.0683 132.207 85.5607 133.043 85.2145C133.879 84.8682 134.775 84.69 135.68 84.69ZM164.68 114.28L178.49 90.4L193.14 127.46H124.77V122.87L130.51 122.58L136.26 108.5L139.13 118.56H147.75L155.22 99.31L164.7 114.25L164.68 114.28ZM200.86 73.69H116.75V133.22H200.86V73.69Z" fill="black" fill-opacity="0.16"/>
</svg>
